{
    "accessors" : [
        {
            "bufferView" : 0,
            "componentType" : 5123,
            "count" : 36546,
            "max" : [
                27074
            ],
            "min" : [
                0
            ],
            "type" : "SCALAR"
        },
        {
            "bufferView" : 1,
            "componentType" : 5126,
            "count" : 27075,
            "max" : [
                32.00185775756836,
                58.74638366699219,
                73.7251968383789
            ],
            "min" : [
                -15.683775901794434,
                -39.84708786010742,
                -26.63019561767578
            ],
            "type" : "VEC3"
        },
        {
            "bufferView" : 2,
            "componentType" : 5126,
            "count" : 27075,
            "max" : [
                0.9999665021896362,
                0.999342143535614,
                0.9999774098396301
            ],
            "min" : [
                -0.9996010065078735,
                -0.9998116493225098,
                -0.998440682888031
            ],
            "type" : "VEC3"
        },
        {
            "bufferView" : 3,
            "componentType" : 5126,
            "count" : 27075,
            "max" : [
                0.29600998759269714,
                0.7160600125789642
            ],
            "min" : [
                0.00023999999393709004,
                0.0012400150299072266
            ],
            "type" : "VEC2"
        }
    ],
    "asset" : {
        "generator" : "Khronos Blender glTF 2.0 exporter",
        "version" : "2.0"
    },
    "bufferViews" : [
        {
            "buffer" : 0,
            "byteLength" : 73092,
            "byteOffset" : 0,
            "target" : 34963
        },
        {
            "buffer" : 0,
            "byteLength" : 324900,
            "byteOffset" : 73092,
            "target" : 34962
        },
        {
            "buffer" : 0,
            "byteLength" : 324900,
            "byteOffset" : 397992,
            "target" : 34962
        },
        {
            "buffer" : 0,
            "byteLength" : 216600,
            "byteOffset" : 722892,
            "target" : 34962
        }
    ],
    "buffers" : [
        {
            "byteLength" : 939492,
            "uri" : "mule.bin"
        }
    ],
    "images" : [
        {
            "name" : "texture",
            "uri" : "texture.jpg"
        }
    ],
    "materials" : [
        {
            "name" : "material0",
            "occlusionTexture" : {
                "index" : 0
            },
            "pbrMetallicRoughness" : {
                "baseColorTexture" : {
                    "index" : 0
                },
                "metallicFactor" : 0.0
            }
        }
    ],
    "meshes" : [
        {
            "name" : "model_New Qlone",
            "primitives" : [
                {
                    "attributes" : {
                        "NORMAL" : 2,
                        "POSITION" : 1,
                        "TEXCOORD_0" : 3
                    },
                    "indices" : 0,
                    "material" : 0
                }
            ]
        }
    ],
    "nodes" : [
        {
            "name" : "Camera",
            "rotation" : [
                0.483536034822464,
                0.33687159419059753,
                -0.20870360732078552,
                0.7804827094078064
            ],
            "translation" : [
                7.481131553649902,
                5.34366512298584,
                6.5076398849487305
            ]
        },
        {
            "name" : "Lamp",
            "rotation" : [
                0.16907575726509094,
                0.7558802962303162,
                -0.27217137813568115,
                0.570947527885437
            ],
            "scale" : [
                1.0,
                1.0,
                0.9999999403953552
            ],
            "translation" : [
                5.930373191833496,
                5.903861999511719,
                7.017838478088379
            ]
        },
        {
            "name" : "Lamp.001",
            "rotation" : [
                0.16907575726509094,
                0.7558802962303162,
                -0.27217137813568115,
                0.570947527885437
            ],
            "scale" : [
                1.0,
                1.0,
                0.9999999403953552
            ],
            "translation" : [
                -4.409460067749023,
                5.903861999511719,
                7.017838478088379
            ]
        },
        {
            "name" : "Lamp.002",
            "rotation" : [
                0.16907575726509094,
                0.7558802962303162,
                -0.27217137813568115,
                0.570947527885437
            ],
            "scale" : [
                1.0,
                1.0,
                0.9999999403953552
            ],
            "translation" : [
                -4.409460067749023,
                5.903861999511719,
                -6.503598213195801
            ]
        },
        {
            "name" : "Lamp.003",
            "rotation" : [
                0.16907575726509094,
                0.7558802962303162,
                -0.27217137813568115,
                0.570947527885437
            ],
            "scale" : [
                1.0,
                1.0,
                0.9999999403953552
            ],
            "translation" : [
                6.7720794677734375,
                5.903861999511719,
                -6.503598213195801
            ]
        },
        {
            "name" : "Lamp.004",
            "rotation" : [
                0.16907575726509094,
                0.7558802962303162,
                -0.27217137813568115,
                0.570947527885437
            ],
            "scale" : [
                1.0,
                1.0,
                0.9999999403953552
            ],
            "translation" : [
                1.5974602699279785,
                -2.2541112899780273,
                2.521005153656006
            ]
        },
        {
            "mesh" : 0,
            "name" : "model_New Qlone",
            "rotation" : [
                0.7071068286895752,
                0.0,
                -0.0,
                0.7071067094802856
            ],
            "scale" : [
                0.07487618923187256,
                0.07487618923187256,
                0.07487618923187256
            ],
            "translation" : [
                0.0,
                5.378068447113037,
                -0.0
            ]
        }
    ],
    "samplers" : [
        {}
    ],
    "scene" : 0,
    "scenes" : [
        {
            "name" : "Scene",
            "nodes" : [
                6,
                1,
                0,
                2,
                3,
                4,
                5
            ]
        }
    ],
    "textures" : [
        {
            "sampler" : 0,
            "source" : 0
        },
        {
            "sampler" : 0,
            "source" : 0
        }
    ]
}
